<svg width="16" height="88" viewBox="0 0 16 88" fill="none" xmlns="http://www.w3.org/2000/svg">
<path d="M8.71973 1C8.71973 0.447715 8.27201 0 7.71973 0C7.16744 0 6.71973 0.447715 6.71973 1H8.71973ZM7.01262 87.7071C7.40314 88.0976 8.03631 88.0976 8.42683 87.7071L14.7908 81.3431C15.1813 80.9526 15.1813 80.3195 14.7908 79.9289C14.4003 79.5384 13.7671 79.5384 13.3766 79.9289L7.71973 85.5858L2.06287 79.9289C1.67235 79.5384 1.03918 79.5384 0.648659 79.9289C0.258134 80.3195 0.258134 80.9526 0.648659 81.3431L7.01262 87.7071ZM6.71973 1V87H8.71973V1H6.71973Z" fill="#3A3A3A"/>
</svg>
